<?xml version="1.0" encoding="UTF-8"?>
<svg version="1.1" xmlns="http://www.w3.org/2000/svg" width="512" height="512">
<path d="M0 0 C0.74478607 0.00215515 1.48957214 0.0043103 2.25692749 0.00653076 C14.16607756 0.06166203 25.74007407 0.60601913 37.375 3.3125 C38.20676758 3.50585938 39.03853516 3.69921875 39.89550781 3.8984375 C72.53128898 11.80422673 100.39123884 28.01991351 124.375 51.3125 C125.20052368 52.10297729 125.20052368 52.10297729 126.04272461 52.90942383 C130.32635122 57.08102166 134.08166447 61.48449038 137.6875 66.25 C138.24655029 66.98798828 138.80560059 67.72597656 139.3815918 68.48632812 C162.40362202 99.29179392 174.88933057 135.36141765 174.6875 173.9375 C174.68534485 174.68228607 174.6831897 175.42707214 174.68096924 176.19442749 C174.62583797 188.10357756 174.08148087 199.67757407 171.375 211.3125 C171.18164062 212.14426758 170.98828125 212.97603516 170.7890625 213.83300781 C162.86398183 246.5484257 146.64528058 274.26088153 123.375 298.3125 C122.40626953 299.34117187 122.40626953 299.34117187 121.41796875 300.390625 C93.16442724 329.76901477 49.66198369 347.60497234 9.26171875 348.59375 C-6.15677591 348.88357457 -21.53374935 348.82298056 -36.625 345.3125 C-37.45676758 345.11914062 -38.28853516 344.92578125 -39.14550781 344.7265625 C-71.78128898 336.82077327 -99.64123884 320.60508649 -123.625 297.3125 C-124.45052368 296.52202271 -124.45052368 296.52202271 -125.29272461 295.71557617 C-129.57635122 291.54397834 -133.33166447 287.14050962 -136.9375 282.375 C-137.77607544 281.26801758 -137.77607544 281.26801758 -138.6315918 280.13867188 C-161.65362202 249.33320608 -174.13933057 213.26358235 -173.9375 174.6875 C-173.93534485 173.94271393 -173.9331897 173.19792786 -173.93096924 172.43057251 C-173.87583797 160.52142244 -173.33148087 148.94742593 -170.625 137.3125 C-170.43164062 136.48073242 -170.23828125 135.64896484 -170.0390625 134.79199219 C-162.13327327 102.15621102 -145.91758649 74.29626116 -122.625 50.3125 C-122.09801514 49.76215088 -121.57103027 49.21180176 -121.02807617 48.64477539 C-116.85647834 44.36114878 -112.45300962 40.60583553 -107.6875 37 C-106.94951172 36.44094971 -106.21152344 35.88189941 -105.45117188 35.3059082 C-74.64570608 12.28387798 -38.57608235 -0.20183057 0 0 Z " fill="#353640" transform="translate(255.625,81.6875)"/>
<path d="M0 0 C26.90792312 1.41620648 26.90792312 1.41620648 32.61328125 3.234375 C33.38019287 3.47607422 34.14710449 3.71777344 34.93725586 3.96679688 C35.72108643 4.22525391 36.50491699 4.48371094 37.3125 4.75 C38.14209229 5.01876953 38.97168457 5.28753906 39.82641602 5.56445312 C46.36754029 7.71788873 52.74092187 10.11940154 59 13 C59.969375 13.43828125 60.93875 13.8765625 61.9375 14.328125 C93.50470295 29.2896639 118.4269034 57.66610155 130.65625 90.17578125 C131.1073438 91.4494 131.55521873 92.72416303 132 94 C132.23203125 94.6501709 132.4640625 95.3003418 132.703125 95.97021484 C138.18906997 111.65468391 139.84018321 128.43377888 139 145 C138.94634277 146.1763501 138.94634277 146.1763501 138.89160156 147.37646484 C138.19793905 161.03959098 135.84345649 173.20846532 131 186 C130.57332031 187.13050781 130.14664063 188.26101563 129.70703125 189.42578125 C128.54531374 192.32443563 127.30545099 195.16346453 126 198 C125.56171875 198.969375 125.1234375 199.93875 124.671875 200.9375 C115.7502484 219.76115173 101.41368 236.94298873 84.8125 249.5 C84.06419922 250.06605957 83.31589844 250.63211914 82.54492188 251.21533203 C68.6124435 261.61685398 53.48616879 268.3519747 36.83203125 273.17578125 C33.99935289 273.95625401 33.99935289 273.95625401 31.32421875 275.03515625 C26.59938912 276.40652278 21.89102303 276.72930716 17 277.125 C16.02804687 277.21136719 15.05609375 277.29773438 14.0546875 277.38671875 C9.32432373 277.7927309 4.76417215 278 0 278 C0 186.26 0 94.52 0 0 Z " fill="#FEFEFE" transform="translate(256,117)"/>
<path d="M0 0 C2.38671875 1.6862793 2.38671875 1.6862793 4.6875 3.88671875 C5.54730469 4.70060059 6.40710938 5.51448242 7.29296875 6.35302734 C8.18628906 7.22652832 9.07960938 8.1000293 10 9 C11.35544922 10.30831787 11.35544922 10.30831787 12.73828125 11.64306641 C15.5136851 14.34535584 18.25995367 17.07439696 21 19.8125 C21.94912693 20.74944198 22.89834536 21.68629128 23.84765625 22.62304688 C24.74355469 23.51701172 25.63945312 24.41097656 26.5625 25.33203125 C27.36816406 26.13358643 28.17382812 26.9351416 29.00390625 27.76098633 C31.70203287 30.78746863 32.86236512 32.92186013 33.375 36.9375 C32.90977662 40.7368243 31.63608379 42.28638434 29 45 C26.13391871 46.43304064 24.18699217 46.30644155 21 46 C16.32775216 43.25923942 12.62706812 39.93439596 8.83203125 36.1328125 C8.27053879 35.57560516 7.70904633 35.01839783 7.13053894 34.44430542 C5.95241217 33.27188871 4.77685248 32.09688725 3.60375977 30.91943359 C1.81584258 29.1283485 0.01498346 27.3510268 -1.78710938 25.57421875 C-2.93570613 24.42789466 -4.08351964 23.28078513 -5.23046875 22.1328125 C-5.76488083 21.60761017 -6.29929291 21.08240784 -6.84989929 20.54129028 C-10.05759401 17.29371098 -12.2881179 14.23940185 -14 10 C-13.92545402 6.2727008 -13.47768643 4.5891466 -11.125 1.6875 C-7.28675822 -1.36051553 -4.59385236 -1.19144017 0 0 Z " fill="#343540" transform="translate(407,394)"/>
<path d="M0 0 C2.83170818 2.06638164 3.82560239 3.50950673 5 6.8125 C5 13.05420552 0.7272316 17.61441567 -3.46716309 21.85835266 C-4.02456177 22.4065416 -4.58196045 22.95473053 -5.15625 23.51953125 C-5.74039673 24.10417648 -6.32454346 24.68882172 -6.9263916 25.29118347 C-8.15322264 26.51568926 -9.38371059 27.73654122 -10.61767578 28.95385742 C-12.50346674 30.81592312 -14.37544511 32.6910946 -16.24609375 34.56835938 C-17.44452062 35.76121277 -18.64371316 36.95329752 -19.84375 38.14453125 C-20.40114868 38.70284134 -20.95854736 39.26115143 -21.53283691 39.83638 C-25.2081846 43.44529433 -27.8055042 45.7198516 -32.9375 46.375 C-36.7368243 45.90977662 -38.28638434 44.63608379 -41 42 C-42.43304064 39.13391871 -42.30644155 37.18699217 -42 34 C-39.25923942 29.32775216 -35.93439596 25.62706812 -32.1328125 21.83203125 C-31.57560516 21.27053879 -31.01839783 20.70904633 -30.44430542 20.13053894 C-29.27188871 18.95241217 -28.09688725 17.77685248 -26.91943359 16.60375977 C-25.1283485 14.81584258 -23.3510268 13.01498346 -21.57421875 11.21289062 C-20.42789466 10.06429387 -19.28078513 8.91648036 -18.1328125 7.76953125 C-17.60761017 7.23511917 -17.08240784 6.70070709 -16.54129028 6.15010071 C-11.56201998 1.23198246 -7.07091958 -2.30573465 0 0 Z " fill="#343540" transform="translate(114,394)"/>
<path d="M0 0 C2.69990662 1.79993774 4.5418865 3.083773 6 6 C6.6122937 11.38818456 5.16140899 13.71365028 2 18 C0.12562069 20.14030294 -1.85413759 22.15838545 -3.8671875 24.16796875 C-4.42439484 24.72946121 -4.98160217 25.29095367 -5.55569458 25.86946106 C-6.72811129 27.04758783 -7.90311275 28.22314752 -9.08056641 29.39624023 C-10.8716515 31.18415742 -12.6489732 32.98501654 -14.42578125 34.78710938 C-15.57210534 35.93570613 -16.71921487 37.08351964 -17.8671875 38.23046875 C-18.39238983 38.76488083 -18.91759216 39.29929291 -19.45870972 39.84989929 C-22.70628902 43.05759401 -25.76059815 45.2881179 -30 47 C-33.61159747 46.92776805 -35.39535598 46.44122671 -38.3125 44.3125 C-40.47333533 41.35135528 -41 39.6788064 -41 36 C-38.34992291 30.59930632 -35.10876403 26.67501311 -30.84375 22.48046875 C-30.25960327 21.89582352 -29.67545654 21.31117828 -29.0736084 20.70881653 C-27.84677736 19.48431074 -26.61628941 18.26345878 -25.38232422 17.04614258 C-23.49653326 15.18407688 -21.62455489 13.3089054 -19.75390625 11.43164062 C-18.55547938 10.23878723 -17.35628684 9.04670248 -16.15625 7.85546875 C-15.59885132 7.29715866 -15.04145264 6.73884857 -14.46716309 6.16362 C-9.8078694 1.58854488 -6.67380153 -0.81720019 0 0 Z " fill="#343540" transform="translate(434,72)"/>
<path d="M0 0 C4.67224784 2.74076058 8.37293188 6.06560404 12.16796875 9.8671875 C13.01020744 10.7029985 13.01020744 10.7029985 13.86946106 11.55569458 C15.04758783 12.72811129 16.22314752 13.90311275 17.39624023 15.08056641 C19.18415742 16.8716515 20.98501654 18.6489732 22.78710938 20.42578125 C23.93570613 21.57210534 25.08351964 22.71921487 26.23046875 23.8671875 C26.76488083 24.39238983 27.29929291 24.91759216 27.84989929 25.45870972 C31.05759401 28.70628902 33.2881179 31.76059815 35 36 C34.92776805 39.61159747 34.44122671 41.39535598 32.3125 44.3125 C29.35135528 46.47333533 27.6788064 47 24 47 C18.59930632 44.34992291 14.67501311 41.10876403 10.48046875 36.84375 C9.89582352 36.25960327 9.31117828 35.67545654 8.70881653 35.0736084 C7.48431074 33.84677736 6.26345878 32.61628941 5.04614258 31.38232422 C3.18407688 29.49653326 1.3089054 27.62455489 -0.56835938 25.75390625 C-1.76121277 24.55547938 -2.95329752 23.35628684 -4.14453125 22.15625 C-4.70284134 21.59885132 -5.26115143 21.04145264 -5.83638 20.46716309 C-9.44529433 16.7918154 -11.7198516 14.1944958 -12.375 9.0625 C-11.90977662 5.2631757 -10.63608379 3.71361566 -8 1 C-5.13391871 -0.43304064 -3.18699217 -0.30644155 0 0 Z " fill="#343540" transform="translate(84,72)"/>
<path d="M0 0 C3.34265205 1.20706879 3.94704566 1.92056849 6 5 C6.27415466 7.14938354 6.27415466 7.14938354 6.30639648 9.66748047 C6.32238388 10.61211151 6.33837128 11.55674255 6.35484314 12.52999878 C6.36288719 14.0581572 6.36288719 14.0581572 6.37109375 15.6171875 C6.38463646 17.19114792 6.38463646 17.19114792 6.39845276 18.79690552 C6.41296641 21.01773216 6.42184475 23.23860166 6.42553711 25.45947266 C6.43743074 28.85522624 6.48660504 32.24916144 6.53710938 35.64453125 C6.54657378 37.80207446 6.55380873 39.95962884 6.55859375 42.1171875 C6.57812607 43.13191132 6.59765839 44.14663513 6.61778259 45.19210815 C6.57265444 52.25296343 6.57265444 52.25296343 3.59399414 56.13867188 C1.09708498 57.93033639 0.01512739 58.68578886 -3 58.625 C-3.639375 58.63789062 -4.27875 58.65078125 -4.9375 58.6640625 C-8.40868496 57.54644613 -9.77769448 55.89172076 -12 53 C-12.73920716 49.38566832 -12.67711859 45.83089216 -12.62890625 42.15234375 C-12.63131821 41.10349503 -12.63373016 40.0546463 -12.63621521 38.97401428 C-12.63523732 36.76087658 -12.62185765 34.54771425 -12.59692383 32.3347168 C-12.56258216 28.94560828 -12.57627736 25.55910244 -12.59570312 22.16992188 C-12.58880558 20.01821806 -12.57913403 17.86652098 -12.56640625 15.71484375 C-12.57136612 14.70123276 -12.57632599 13.68762177 -12.58143616 12.64329529 C-12.46390389 5.63310283 -12.46390389 5.63310283 -10.08959961 2.39282227 C-6.50053834 0.00053408 -4.33156492 -0.2598939 0 0 Z " fill="#34353F" transform="translate(259,454)"/>
<path d="M0 0 C0.94463104 -0.0159874 1.88926208 -0.03197479 2.86251831 -0.04844666 C4.39067673 -0.05649071 4.39067673 -0.05649071 5.94970703 -0.06469727 C6.99901398 -0.07372574 8.04832092 -0.08275421 9.12942505 -0.09205627 C11.35025169 -0.10656993 13.57112119 -0.11544827 15.79199219 -0.11914062 C19.18774577 -0.13103426 22.58168097 -0.18020855 25.97705078 -0.23071289 C28.13459399 -0.24017729 30.29214837 -0.24741224 32.44970703 -0.25219727 C33.46443085 -0.27172958 34.47915466 -0.2912619 35.52462769 -0.31138611 C42.58548296 -0.26625795 42.58548296 -0.26625795 46.47119141 2.71240234 C48.26285592 5.2093115 49.01830839 6.2912691 48.95751953 9.30639648 C48.97041016 9.94577148 48.98330078 10.58514648 48.99658203 11.24389648 C47.87896566 14.71508145 46.22424029 16.08409096 43.33251953 18.30639648 C39.71818785 19.04560365 36.16341169 18.98351507 32.48486328 18.93530273 C30.91159019 18.93892067 30.91159019 18.93892067 29.30653381 18.94261169 C27.09339611 18.9416338 24.88023378 18.92825414 22.66723633 18.90332031 C19.27812781 18.86897865 15.89162197 18.88267385 12.50244141 18.90209961 C10.35073759 18.89520206 8.19904051 18.88553051 6.04736328 18.87280273 C4.52694679 18.88024254 4.52694679 18.88024254 2.97581482 18.88783264 C-4.03437764 18.77030037 -4.03437764 18.77030037 -7.2746582 16.39599609 C-9.66694638 12.80693482 -9.92737436 10.63796141 -9.66748047 6.30639648 C-7.89477869 1.39737616 -5.04255231 0.06456506 0 0 Z " fill="#34353F" transform="translate(463.66748046875,246.693603515625)"/>
<path d="M0 0 C1.04884872 -0.00241196 2.09769745 -0.00482391 3.17832947 -0.00730896 C5.39146717 -0.00633107 7.6046295 0.0070486 9.81762695 0.03198242 C13.20673547 0.06632409 16.59324131 0.05262889 19.98242188 0.03320312 C22.13412569 0.04010067 24.28582277 0.04977222 26.4375 0.0625 C27.95791649 0.0550602 27.95791649 0.0550602 29.50904846 0.04747009 C36.51924092 0.16500236 36.51924092 0.16500236 39.75952148 2.53930664 C42.15180967 6.12836791 42.41223765 8.29734133 42.15234375 12.62890625 C40.94527496 15.9715583 40.23177526 16.57595191 37.15234375 18.62890625 C35.00296021 18.90306091 35.00296021 18.90306091 32.48486328 18.93530273 C31.06791672 18.95928383 31.06791672 18.95928383 29.62234497 18.98374939 C28.09418655 18.99179344 28.09418655 18.99179344 26.53515625 19 C25.4858493 19.00902847 24.43654236 19.01805695 23.35543823 19.02735901 C21.13461159 19.04187266 18.91374209 19.050751 16.69287109 19.05444336 C13.29711751 19.06633699 9.90318231 19.11551129 6.5078125 19.16601562 C4.35026929 19.17548003 2.19271491 19.18271498 0.03515625 19.1875 C-0.97956757 19.20703232 -1.99429138 19.22656464 -3.0397644 19.24668884 C-10.10061968 19.20156069 -10.10061968 19.20156069 -13.98632812 16.22290039 C-15.77799264 13.72599123 -16.53344511 12.64403364 -16.47265625 9.62890625 C-16.48554688 8.98953125 -16.4984375 8.35015625 -16.51171875 7.69140625 C-13.89190675 -0.44542162 -7.16847839 -0.09395258 0 0 Z " fill="#34353F" transform="translate(15.84765625,246.37109375)"/>
<path d="M0 0 C0.639375 -0.01289063 1.27875 -0.02578125 1.9375 -0.0390625 C5.40868496 1.07855387 6.77769448 2.73327924 9 5.625 C9.73920716 9.23933168 9.67711859 12.79410784 9.62890625 16.47265625 C9.63131821 17.52150497 9.63373016 18.5703537 9.63621521 19.65098572 C9.63523732 21.86412342 9.62185765 24.07728575 9.59692383 26.2902832 C9.56258216 29.67939172 9.57627736 33.06589756 9.59570312 36.45507812 C9.58880558 38.60678194 9.57913403 40.75847902 9.56640625 42.91015625 C9.57136612 43.92376724 9.57632599 44.93737823 9.58143616 45.98170471 C9.46390389 52.99189717 9.46390389 52.99189717 7.08959961 56.23217773 C3.50053834 58.62446592 1.33156492 58.8848939 -3 58.625 C-6.34265205 57.41793121 -6.94704566 56.70443151 -9 53.625 C-9.27415466 51.47561646 -9.27415466 51.47561646 -9.30639648 48.95751953 C-9.32238388 48.01288849 -9.33837128 47.06825745 -9.35484314 46.09500122 C-9.36020584 45.07622894 -9.36556854 44.05745667 -9.37109375 43.0078125 C-9.38463646 41.43385208 -9.38463646 41.43385208 -9.39845276 39.82809448 C-9.41296641 37.60726784 -9.42184475 35.38639834 -9.42553711 33.16552734 C-9.43743074 29.76977376 -9.48660504 26.37583856 -9.53710938 22.98046875 C-9.54657378 20.82292554 -9.55380873 18.66537116 -9.55859375 16.5078125 C-9.57812607 15.49308868 -9.59765839 14.47836487 -9.61778259 13.43289185 C-9.57265444 6.37203657 -9.57265444 6.37203657 -6.59399414 2.48632812 C-4.09708498 0.69466361 -3.01512739 -0.06078886 0 0 Z " fill="#34353F" transform="translate(256,-0.625)"/>
</svg>
